<mxfile host="app.diagrams.net" modified="2022-07-12T14:09:35.848Z" agent="5.0 (Windows NT 10.0; Win64; x64) AppleWebKit/537.36 (KHTML, like Gecko) Chrome/103.0.0.0 Safari/537.36" etag="3HaPx2BCrXKmdb8knZo7" version="20.0.4" type="github">
  <diagram id="C5RBs43oDa-KdzZeNtuy" name="Page-1">
    <mxGraphModel dx="1422" dy="754" grid="1" gridSize="10" guides="1" tooltips="1" connect="1" arrows="1" fold="1" page="1" pageScale="1" pageWidth="827" pageHeight="1169" math="0" shadow="0">
      <root>
        <mxCell id="WIyWlLk6GJQsqaUBKTNV-0" />
        <mxCell id="WIyWlLk6GJQsqaUBKTNV-1" parent="WIyWlLk6GJQsqaUBKTNV-0" />
        <mxCell id="sjXAZ61UlRJEvJu7ne81-18" style="edgeStyle=orthogonalEdgeStyle;rounded=0;orthogonalLoop=1;jettySize=auto;html=1;exitX=0.5;exitY=1;exitDx=0;exitDy=0;" edge="1" parent="WIyWlLk6GJQsqaUBKTNV-1" source="sjXAZ61UlRJEvJu7ne81-0" target="sjXAZ61UlRJEvJu7ne81-1">
          <mxGeometry relative="1" as="geometry" />
        </mxCell>
        <mxCell id="sjXAZ61UlRJEvJu7ne81-0" value="读取xml或注解" style="rounded=0;whiteSpace=wrap;html=1;" vertex="1" parent="WIyWlLk6GJQsqaUBKTNV-1">
          <mxGeometry x="360" y="40" width="120" height="60" as="geometry" />
        </mxCell>
        <mxCell id="sjXAZ61UlRJEvJu7ne81-16" style="edgeStyle=orthogonalEdgeStyle;rounded=0;orthogonalLoop=1;jettySize=auto;html=1;exitX=0.75;exitY=1;exitDx=0;exitDy=0;entryX=0.75;entryY=0;entryDx=0;entryDy=0;" edge="1" parent="WIyWlLk6GJQsqaUBKTNV-1">
          <mxGeometry relative="1" as="geometry">
            <mxPoint x="426" y="220" as="sourcePoint" />
            <mxPoint x="426" y="270" as="targetPoint" />
          </mxGeometry>
        </mxCell>
        <mxCell id="sjXAZ61UlRJEvJu7ne81-1" value="sqlsessionFactory" style="rounded=1;whiteSpace=wrap;html=1;" vertex="1" parent="WIyWlLk6GJQsqaUBKTNV-1">
          <mxGeometry x="360" y="160" width="120" height="60" as="geometry" />
        </mxCell>
        <mxCell id="sjXAZ61UlRJEvJu7ne81-2" value="sqlsession" style="rounded=1;whiteSpace=wrap;html=1;" vertex="1" parent="WIyWlLk6GJQsqaUBKTNV-1">
          <mxGeometry x="360" y="270" width="120" height="60" as="geometry" />
        </mxCell>
        <mxCell id="sjXAZ61UlRJEvJu7ne81-3" value="executor" style="rounded=1;whiteSpace=wrap;html=1;" vertex="1" parent="WIyWlLk6GJQsqaUBKTNV-1">
          <mxGeometry x="360" y="380" width="120" height="60" as="geometry" />
        </mxCell>
        <mxCell id="sjXAZ61UlRJEvJu7ne81-4" value="mappedstatement" style="rounded=1;whiteSpace=wrap;html=1;" vertex="1" parent="WIyWlLk6GJQsqaUBKTNV-1">
          <mxGeometry x="360" y="510" width="120" height="60" as="geometry" />
        </mxCell>
        <mxCell id="sjXAZ61UlRJEvJu7ne81-5" value="parameterHandler" style="rounded=1;whiteSpace=wrap;html=1;" vertex="1" parent="WIyWlLk6GJQsqaUBKTNV-1">
          <mxGeometry x="100" y="510" width="120" height="60" as="geometry" />
        </mxCell>
        <mxCell id="sjXAZ61UlRJEvJu7ne81-6" value="resultsetHandler" style="rounded=1;whiteSpace=wrap;html=1;" vertex="1" parent="WIyWlLk6GJQsqaUBKTNV-1">
          <mxGeometry x="640" y="510" width="120" height="60" as="geometry" />
        </mxCell>
        <mxCell id="sjXAZ61UlRJEvJu7ne81-7" value="db" style="rounded=1;whiteSpace=wrap;html=1;" vertex="1" parent="WIyWlLk6GJQsqaUBKTNV-1">
          <mxGeometry x="370" y="640" width="120" height="60" as="geometry" />
        </mxCell>
        <mxCell id="sjXAZ61UlRJEvJu7ne81-10" value="" style="endArrow=classic;html=1;rounded=0;exitX=0.592;exitY=1.067;exitDx=0;exitDy=0;exitPerimeter=0;" edge="1" parent="WIyWlLk6GJQsqaUBKTNV-1" source="sjXAZ61UlRJEvJu7ne81-2">
          <mxGeometry width="50" height="50" relative="1" as="geometry">
            <mxPoint x="450" y="340" as="sourcePoint" />
            <mxPoint x="425" y="380" as="targetPoint" />
          </mxGeometry>
        </mxCell>
        <mxCell id="sjXAZ61UlRJEvJu7ne81-11" value="" style="endArrow=classic;html=1;rounded=0;exitX=0.5;exitY=1;exitDx=0;exitDy=0;" edge="1" parent="WIyWlLk6GJQsqaUBKTNV-1" source="sjXAZ61UlRJEvJu7ne81-3">
          <mxGeometry width="50" height="50" relative="1" as="geometry">
            <mxPoint x="415" y="450" as="sourcePoint" />
            <mxPoint x="425" y="510" as="targetPoint" />
          </mxGeometry>
        </mxCell>
        <mxCell id="sjXAZ61UlRJEvJu7ne81-12" value="" style="endArrow=classic;html=1;rounded=0;exitX=0.5;exitY=1;exitDx=0;exitDy=0;entryX=0.5;entryY=0;entryDx=0;entryDy=0;" edge="1" parent="WIyWlLk6GJQsqaUBKTNV-1" source="sjXAZ61UlRJEvJu7ne81-4" target="sjXAZ61UlRJEvJu7ne81-7">
          <mxGeometry width="50" height="50" relative="1" as="geometry">
            <mxPoint x="430" y="580" as="sourcePoint" />
            <mxPoint x="440" y="640" as="targetPoint" />
          </mxGeometry>
        </mxCell>
        <mxCell id="sjXAZ61UlRJEvJu7ne81-13" value="" style="endArrow=classic;html=1;rounded=0;exitX=1;exitY=0.5;exitDx=0;exitDy=0;" edge="1" parent="WIyWlLk6GJQsqaUBKTNV-1" source="sjXAZ61UlRJEvJu7ne81-5">
          <mxGeometry width="50" height="50" relative="1" as="geometry">
            <mxPoint x="360" y="490" as="sourcePoint" />
            <mxPoint x="370" y="550" as="targetPoint" />
          </mxGeometry>
        </mxCell>
        <mxCell id="sjXAZ61UlRJEvJu7ne81-14" value="" style="endArrow=classic;html=1;rounded=0;exitX=0.5;exitY=1;exitDx=0;exitDy=0;entryX=0;entryY=0.5;entryDx=0;entryDy=0;" edge="1" parent="WIyWlLk6GJQsqaUBKTNV-1" target="sjXAZ61UlRJEvJu7ne81-6">
          <mxGeometry width="50" height="50" relative="1" as="geometry">
            <mxPoint x="490" y="540" as="sourcePoint" />
            <mxPoint x="500" y="600" as="targetPoint" />
          </mxGeometry>
        </mxCell>
        <mxCell id="sjXAZ61UlRJEvJu7ne81-20" style="edgeStyle=orthogonalEdgeStyle;rounded=0;orthogonalLoop=1;jettySize=auto;html=1;entryX=0.992;entryY=0.65;entryDx=0;entryDy=0;entryPerimeter=0;" edge="1" parent="WIyWlLk6GJQsqaUBKTNV-1" source="sjXAZ61UlRJEvJu7ne81-19" target="sjXAZ61UlRJEvJu7ne81-2">
          <mxGeometry relative="1" as="geometry" />
        </mxCell>
        <mxCell id="sjXAZ61UlRJEvJu7ne81-19" value="接口定了CRUD等操作" style="ellipse;whiteSpace=wrap;html=1;" vertex="1" parent="WIyWlLk6GJQsqaUBKTNV-1">
          <mxGeometry x="630" y="140" width="90" height="80" as="geometry" />
        </mxCell>
        <mxCell id="sjXAZ61UlRJEvJu7ne81-23" style="edgeStyle=orthogonalEdgeStyle;rounded=0;orthogonalLoop=1;jettySize=auto;html=1;entryX=1;entryY=0.5;entryDx=0;entryDy=0;" edge="1" parent="WIyWlLk6GJQsqaUBKTNV-1" source="sjXAZ61UlRJEvJu7ne81-22" target="sjXAZ61UlRJEvJu7ne81-3">
          <mxGeometry relative="1" as="geometry" />
        </mxCell>
        <mxCell id="sjXAZ61UlRJEvJu7ne81-22" value="对应于staement或prepareStatement" style="ellipse;whiteSpace=wrap;html=1;" vertex="1" parent="WIyWlLk6GJQsqaUBKTNV-1">
          <mxGeometry x="650" y="290" width="120" height="80" as="geometry" />
        </mxCell>
        <mxCell id="sjXAZ61UlRJEvJu7ne81-25" style="edgeStyle=orthogonalEdgeStyle;rounded=0;orthogonalLoop=1;jettySize=auto;html=1;entryX=1;entryY=0.25;entryDx=0;entryDy=0;" edge="1" parent="WIyWlLk6GJQsqaUBKTNV-1" source="sjXAZ61UlRJEvJu7ne81-24" target="sjXAZ61UlRJEvJu7ne81-4">
          <mxGeometry relative="1" as="geometry" />
        </mxCell>
        <mxCell id="sjXAZ61UlRJEvJu7ne81-24" value="动态生成sql语句" style="ellipse;whiteSpace=wrap;html=1;" vertex="1" parent="WIyWlLk6GJQsqaUBKTNV-1">
          <mxGeometry x="620" y="400" width="120" height="80" as="geometry" />
        </mxCell>
      </root>
    </mxGraphModel>
  </diagram>
</mxfile>
